<svg width="114" height="31" viewBox="0 0 114 31" fill="none" xmlns="http://www.w3.org/2000/svg">
<path d="M61.2987 25.0898H60.8747V27.7698H61.3947V27.9218H58.7947V27.7698H59.3147V22.4738H58.7947V22.3218H61.2107C61.904 22.3218 62.3947 22.3591 62.6827 22.4338C62.976 22.5031 63.1814 22.5884 63.2987 22.6898C63.5547 22.8978 63.6827 23.2284 63.6827 23.6818C63.6827 24.1351 63.5707 24.4604 63.3467 24.6578C63.1227 24.8498 62.7814 24.9644 62.3227 25.0018V25.0258C62.7547 25.0844 63.056 25.2124 63.2267 25.4098C63.3974 25.6071 63.4827 25.9378 63.4827 26.4018V26.8258C63.4827 27.1031 63.496 27.2898 63.5227 27.3858C63.5547 27.4818 63.6187 27.5298 63.7147 27.5298C63.8107 27.5298 63.8854 27.4871 63.9387 27.4018C63.9974 27.3111 64.0507 27.1244 64.0987 26.8418L64.2347 26.8578C64.176 27.3111 64.072 27.6151 63.9227 27.7698C63.7787 27.9244 63.488 28.0018 63.0507 28.0018C62.6134 28.0018 62.3014 27.9004 62.1147 27.6978C61.9334 27.4898 61.8427 27.1031 61.8427 26.5378V25.9538C61.8427 25.6551 61.8027 25.4364 61.7227 25.2978C61.648 25.1591 61.5067 25.0898 61.2987 25.0898ZM60.8747 22.4738V24.9378H61.1307C61.4347 24.9378 61.6587 24.8444 61.8027 24.6578C61.952 24.4711 62.0267 24.1671 62.0267 23.7458V23.5138C62.0267 23.0924 61.9547 22.8151 61.8107 22.6818C61.672 22.5431 61.448 22.4738 61.1387 22.4738H60.8747ZM66.4013 26.0418H66.6333V25.4258C66.6333 24.9191 66.6039 24.5804 66.5453 24.4098C66.4919 24.2338 66.3853 24.1458 66.2253 24.1458C66.1293 24.1458 66.0413 24.1724 65.9613 24.2258C65.8866 24.2738 65.8493 24.3431 65.8493 24.4338C65.8493 24.5191 65.8653 24.6071 65.8973 24.6978H66.0973C66.1399 24.8098 66.1613 24.9458 66.1613 25.1058C66.1613 25.2604 66.0946 25.3964 65.9613 25.5138C65.8279 25.6258 65.6599 25.6818 65.4573 25.6818C64.9986 25.6818 64.7693 25.4604 64.7693 25.0178C64.7693 24.3618 65.3266 24.0338 66.4413 24.0338C67.0759 24.0338 67.5133 24.1431 67.7533 24.3618C67.9986 24.5751 68.1213 24.9698 68.1213 25.5458V27.1698C68.1213 27.4471 68.1986 27.5858 68.3533 27.5858C68.5346 27.5858 68.6413 27.3111 68.6733 26.7618L68.7933 26.7698C68.7719 27.2391 68.6839 27.5618 68.5293 27.7378C68.3746 27.9138 68.1213 28.0018 67.7693 28.0018C67.1293 28.0018 66.7613 27.8044 66.6653 27.4098C66.5959 27.6124 66.4919 27.7618 66.3533 27.8578C66.2146 27.9538 66.0119 28.0018 65.7453 28.0018C64.9559 28.0018 64.5613 27.6791 64.5613 27.0338C64.5613 26.6551 64.7106 26.3964 65.0093 26.2578C65.3133 26.1138 65.7773 26.0418 66.4013 26.0418ZM66.0813 27.0258C66.0813 27.3031 66.0946 27.4818 66.1213 27.5618C66.1533 27.6418 66.2093 27.6818 66.2893 27.6818C66.3746 27.6818 66.4519 27.6151 66.5213 27.4818C66.5959 27.3431 66.6333 27.1538 66.6333 26.9138V26.1698H66.5773C66.2466 26.1698 66.0813 26.4124 66.0813 26.8978V27.0258ZM70.0479 23.5618C69.7652 23.5618 69.5626 23.4898 69.4399 23.3458C69.3226 23.2018 69.2639 23.0231 69.2639 22.8098C69.2639 22.5964 69.3279 22.4204 69.4559 22.2818C69.5892 22.1431 69.7892 22.0738 70.0559 22.0738C70.3226 22.0738 70.5252 22.1378 70.6639 22.2658C70.8026 22.3884 70.8719 22.5671 70.8719 22.8018C70.8719 23.0311 70.8052 23.2151 70.6719 23.3538C70.5386 23.4924 70.3306 23.5618 70.0479 23.5618ZM68.8399 24.1138H70.7999V27.7778H71.2479V27.9218H68.8719V27.7778H69.3119V24.2578H68.8399V24.1138ZM71.427 24.1138H73.355V24.8498C73.4403 24.6044 73.571 24.4071 73.747 24.2578C73.923 24.1084 74.1896 24.0338 74.547 24.0338C75.3736 24.0338 75.787 24.4791 75.787 25.3698V27.7778H76.235V27.9218H73.971V27.7778H74.299V25.1778C74.299 24.8578 74.2776 24.6524 74.235 24.5618C74.1923 24.4658 74.115 24.4178 74.003 24.4178C73.8323 24.4178 73.6803 24.5298 73.547 24.7538C73.419 24.9778 73.355 25.2498 73.355 25.5698V27.7778H73.699V27.9218H71.427V27.7778H71.867V24.2578H71.427V24.1138ZM79.2607 25.7698C79.2607 25.2204 79.234 24.8524 79.1807 24.6658C79.1273 24.4738 79.0233 24.3778 78.8687 24.3778C78.714 24.3778 78.5753 24.4738 78.4527 24.6658C78.33 24.8578 78.2687 25.1218 78.2687 25.4578V26.9458C78.2687 27.1751 78.314 27.3698 78.4047 27.5298C78.5007 27.6898 78.634 27.7698 78.8047 27.7698C78.9807 27.7698 79.1007 27.6524 79.1647 27.4178C79.2287 27.1831 79.2607 26.7724 79.2607 26.1858V25.7698ZM78.2687 21.9218V24.7218C78.4713 24.2631 78.818 24.0338 79.3087 24.0338C80.306 24.0338 80.8047 24.6978 80.8047 26.0258C80.8047 26.7031 80.666 27.2018 80.3887 27.5218C80.1167 27.8418 79.706 28.0018 79.1567 28.0018C78.8793 28.0018 78.666 27.9591 78.5167 27.8738C78.3727 27.7884 78.274 27.6471 78.2207 27.4498L78.1647 27.9218H76.3407V27.7778H76.7807V22.0658H76.3407V21.9218H78.2687ZM83.6278 26.3458V25.6658C83.6278 25.1484 83.5984 24.7724 83.5398 24.5378C83.4864 24.2978 83.3584 24.1778 83.1558 24.1778C83.0384 24.1778 82.9424 24.2124 82.8678 24.2818C82.7984 24.3458 82.7478 24.4551 82.7158 24.6098C82.6678 24.8498 82.6438 25.2151 82.6438 25.7058V26.3298C82.6438 26.9111 82.6598 27.2604 82.6918 27.3778C82.7291 27.4951 82.7664 27.5911 82.8038 27.6658C82.8624 27.7938 82.9771 27.8578 83.1478 27.8578C83.3558 27.8578 83.4918 27.7378 83.5558 27.4978C83.6038 27.3271 83.6278 26.9431 83.6278 26.3458ZM83.1318 28.0018C82.4651 28.0018 81.9611 27.8311 81.6198 27.4898C81.2784 27.1484 81.1078 26.6604 81.1078 26.0258C81.1078 25.3858 81.2891 24.8951 81.6518 24.5538C82.0198 24.2071 82.5344 24.0338 83.1958 24.0338C83.8571 24.0338 84.3504 24.1938 84.6758 24.5138C85.0011 24.8284 85.1638 25.3111 85.1638 25.9618C85.1638 27.3218 84.4864 28.0018 83.1318 28.0018ZM87.8813 24.2578V24.1138H89.9453V24.2578H89.6173L90.3373 26.9538L91.0493 24.2578H90.4973V24.1138H91.5773V24.2578H91.2413L90.2813 27.9218H89.1853L88.4893 25.4658L87.7373 27.9218H86.6653L85.4813 24.2578H85.1213V24.1138H87.5453V24.2578H87.0653L87.8013 26.9778L88.3773 25.1058L88.1773 24.2578H87.8813ZM92.2227 28.0018C91.9934 28.0018 91.82 27.9351 91.7027 27.8018C91.5907 27.6631 91.5347 27.4978 91.5347 27.3058C91.5347 27.1084 91.5934 26.9431 91.7107 26.8098C91.8334 26.6764 92.004 26.6098 92.2227 26.6098C92.4414 26.6098 92.6147 26.6658 92.7427 26.7778C92.8707 26.8898 92.9347 27.0578 92.9347 27.2818C92.9347 27.5058 92.8734 27.6818 92.7507 27.8098C92.6334 27.9378 92.4574 28.0018 92.2227 28.0018ZM95.4557 24.1778C95.221 24.1778 95.053 24.3058 94.9517 24.5618C94.8503 24.8178 94.7997 25.2418 94.7997 25.8338V26.2498C94.7997 26.7778 94.8583 27.1564 94.9757 27.3858C95.093 27.6151 95.309 27.7298 95.6237 27.7298C95.9383 27.7298 96.189 27.6231 96.3757 27.4098C96.5623 27.1964 96.6823 26.9538 96.7357 26.6818L96.8797 26.6978C96.7783 27.1564 96.5917 27.4871 96.3197 27.6898C96.0423 27.8978 95.661 28.0018 95.1757 28.0018C94.557 28.0018 94.0823 27.8364 93.7517 27.5058C93.421 27.1698 93.2557 26.6818 93.2557 26.0418C93.2557 25.3964 93.4423 24.9004 93.8157 24.5538C94.1943 24.2071 94.7197 24.0338 95.3917 24.0338C95.8663 24.0338 96.229 24.1271 96.4797 24.3138C96.7303 24.4951 96.8557 24.7244 96.8557 25.0018C96.8557 25.2791 96.7943 25.4818 96.6717 25.6098C96.5543 25.7378 96.389 25.8018 96.1757 25.8018C95.9677 25.8018 95.7997 25.7458 95.6717 25.6338C95.5437 25.5218 95.4797 25.3564 95.4797 25.1378C95.4797 25.0418 95.493 24.9458 95.5197 24.8498H95.7837C95.821 24.7431 95.8397 24.6471 95.8397 24.5618C95.8397 24.3058 95.7117 24.1778 95.4557 24.1778ZM97.0047 21.9218H98.9327V24.8498C99.018 24.6044 99.1487 24.4071 99.3247 24.2578C99.5007 24.1084 99.7674 24.0338 100.125 24.0338C100.951 24.0338 101.365 24.4791 101.365 25.3698V27.7778H101.813V27.9218H99.5487V27.7778H99.8767V25.1778C99.8767 24.8578 99.8554 24.6524 99.8127 24.5618C99.77 24.4658 99.6927 24.4178 99.5807 24.4178C99.41 24.4178 99.258 24.5298 99.1247 24.7538C98.9967 24.9778 98.9327 25.2498 98.9327 25.5698V27.7778H99.2767V27.9218H97.0047V27.7778H97.4447V22.0658H97.0047V21.9218ZM103.854 26.0418H104.086V25.4258C104.086 24.9191 104.057 24.5804 103.998 24.4098C103.945 24.2338 103.838 24.1458 103.678 24.1458C103.582 24.1458 103.494 24.1724 103.414 24.2258C103.34 24.2738 103.302 24.3431 103.302 24.4338C103.302 24.5191 103.318 24.6071 103.35 24.6978H103.55C103.593 24.8098 103.614 24.9458 103.614 25.1058C103.614 25.2604 103.548 25.3964 103.414 25.5138C103.281 25.6258 103.113 25.6818 102.91 25.6818C102.452 25.6818 102.222 25.4604 102.222 25.0178C102.222 24.3618 102.78 24.0338 103.894 24.0338C104.529 24.0338 104.966 24.1431 105.206 24.3618C105.452 24.5751 105.574 24.9698 105.574 25.5458V27.1698C105.574 27.4471 105.652 27.5858 105.806 27.5858C105.988 27.5858 106.094 27.3111 106.126 26.7618L106.246 26.7698C106.225 27.2391 106.137 27.5618 105.982 27.7378C105.828 27.9138 105.574 28.0018 105.222 28.0018C104.582 28.0018 104.214 27.8044 104.118 27.4098C104.049 27.6124 103.945 27.7618 103.806 27.8578C103.668 27.9538 103.465 28.0018 103.198 28.0018C102.409 28.0018 102.014 27.6791 102.014 27.0338C102.014 26.6551 102.164 26.3964 102.462 26.2578C102.766 26.1138 103.23 26.0418 103.854 26.0418ZM103.534 27.0258C103.534 27.3031 103.548 27.4818 103.574 27.5618C103.606 27.6418 103.662 27.6818 103.742 27.6818C103.828 27.6818 103.905 27.6151 103.974 27.4818C104.049 27.3431 104.086 27.1538 104.086 26.9138V26.1698H104.03C103.7 26.1698 103.534 26.4124 103.534 26.8978V27.0258ZM106.608 26.7778V24.2578H106.168V24.1138H106.608V23.0818L108.096 22.7138V24.1138H109.136V24.2578H108.096V26.9538C108.096 27.2044 108.12 27.3884 108.168 27.5058C108.221 27.6231 108.328 27.6818 108.488 27.6818C108.648 27.6818 108.787 27.6018 108.904 27.4418C109.027 27.2818 109.107 27.0631 109.144 26.7858L109.28 26.8018C109.237 27.1698 109.12 27.4631 108.928 27.6818C108.736 27.8951 108.419 28.0018 107.976 28.0018C107.533 28.0018 107.195 27.9138 106.96 27.7378C106.725 27.5618 106.608 27.2418 106.608 26.7778Z" fill="black"/>
<circle cx="14.2231" cy="14.2231" r="14.2231" fill="#6F74F7"/>
<rect x="28.4463" width="13.8631" height="14.0431" fill="#F8BDFF"/>
<rect x="42.3093" y="14.0431" width="13.8631" height="14.0431" fill="#FFC305"/>
</svg>
